<?xml version="1.0" encoding="UTF-8" standalone="no"?>
<!-- Created with Inkscape (http://www.inkscape.org/) -->

<svg
   version="1.1"
   id="svg1"
   width="143.70667"
   height="83.58667"
   viewBox="0 0 143.70667 83.58667"
   xmlns="http://www.w3.org/2000/svg"
   xmlns:svg="http://www.w3.org/2000/svg">
  <defs
     id="defs1" />
  <g
     id="g1">
    <path
       id="path1"
       d="m 4.8281042,-4.0937604 -0.8359375,-1.984375 c -0.03125,-0.078125 -0.046875,-0.1171875 -0.046875,-0.125 0,-0.0625 0.171875,-0.25 0.5859375,-0.2890625 0.1015625,-0.015625 0.203125,-0.023437 0.203125,-0.1953125 0,-0.1171875 -0.125,-0.1171875 -0.15625,-0.1171875 -0.40625,0 -0.8359375,0.03125 -1.25,0.03125 -0.25,0 -0.8671875,-0.03125 -1.1171875,-0.03125 -0.0625,0 -0.1796875,0 -0.1796875,0.203125 0,0.109375 0.1015625,0.109375 0.2265625,0.109375 0.6015625,0 0.6640625,0.09375 0.75,0.3203125 l 1.171875,2.7734375 -2.1015625,2.265625 -0.125,0.109375 c -0.4921875,0.52343748 -0.96093753,0.68749998 -1.46875003,0.71093748 -0.125,0.015625 -0.21875,0.015625 -0.21875,0.203125 0,0.007813 0,0.109375003333 0.1328125,0.109375003333 0.296875,0 0.62500003,-0.03125000333 0.93750003,-0.03125000333 0.3671875,0 0.7578125,0.03125000333 1.1171875,0.03125000333 0.054687,0 0.1796875,0 0.1796875,-0.195312503333 0,-0.1015625 -0.1015625,-0.1171875 -0.125,-0.1171875 -0.085937,-0.007813 -0.3984375,-0.0234375 -0.3984375,-0.3046875 0,-0.15625 0.1484375,-0.3203125 0.2734375,-0.44531248 l 1.015625,-1.078125 0.8984375,-0.9765625 1,2.38281248 c 0.039063,0.109375 0.054687,0.1171875 0.054687,0.140625 0,0.078125 -0.1953125,0.2421875 -0.578125,0.28125 -0.109375,0.015625 -0.203125,0.0234375 -0.203125,0.1953125 0,0.117187503333 0.109375,0.117187503333 0.1484375,0.117187503333 0.28125,0 0.9765625,-0.03125000333 1.2578125,-0.03125000333 0.25,0 0.859375,0.03125000333 1.109375,0.03125000333 0.0625,0 0.1875,0 0.1875,-0.187500003333 0,-0.125 -0.1015625,-0.125 -0.1796875,-0.125 -0.671875,-0.007813 -0.6875,-0.0390625 -0.859375,-0.4375 -0.390625,-0.92187498 -1.0546875,-2.47656248 -1.28125,-3.07812498 0.671875,-0.6953125 1.71875,-1.8828125 2.0390625,-2.15625 0.2890625,-0.2421875 0.6640625,-0.4765625 1.265625,-0.5078125 0.1328125,-0.015625 0.21875,-0.015625 0.21875,-0.203125 0,-0.00781 0,-0.109375 -0.1328125,-0.109375 -0.296875,0 -0.625,0.03125 -0.9296875,0.03125 -0.375,0 -0.75,-0.03125 -1.109375,-0.03125 -0.0625,0 -0.1875,0 -0.1875,0.203125 0,0.070312 0.046875,0.09375 0.1171875,0.109375 0.09375,0.00781 0.3984375,0.03125 0.3984375,0.3046875 0,0.140625 -0.109375,0.2734375 -0.1875,0.359375 z m 0,0"
       style="fill:#000000;fill-opacity:1;fill-rule:nonzero;stroke:none"
       aria-label="X"
       transform="matrix(2,0,0,2,6.6406667,76.945333)" />
    <path
       id="path2"
       d="m 5.9461823,-5.6640729 0.140625,-0.140625 c 0.296875,-0.3046875 0.625,-0.640625 1.3046875,-0.6875 0.109375,-0.015625 0.203125,-0.015625 0.203125,-0.1953125 0,-0.078125 -0.054687,-0.1171875 -0.1328125,-0.1171875 -0.2578125,0 -0.546875,0.03125 -0.8203125,0.03125 -0.328125,0 -0.671875,-0.03125 -0.9921875,-0.03125 -0.0625,0 -0.1875,0 -0.1875,0.1875 0,0.109375 0.09375,0.125 0.1484375,0.125 0.070312,0 0.359375,0.015625 0.359375,0.2265625 0,0.171875 -0.234375,0.4296875 -0.2734375,0.4765625 l -2.3125,2.6640625 -1.09375,-2.9609375 c -0.054687,-0.140625 -0.054687,-0.15625 -0.054687,-0.171875 0,-0.234375 0.484375,-0.234375 0.5859375,-0.234375 0.140625,0 0.234375,0 0.234375,-0.203125 0,-0.109375 -0.1171875,-0.109375 -0.1484375,-0.109375 -0.2734375,0 -0.9765625,0.03125 -1.25,0.03125 -0.25,0 -0.86718751,-0.03125 -1.11718751,-0.03125 -0.0625,0 -0.1875,0 -0.1875,0.203125 0,0.109375 0.09375,0.109375 0.2265625,0.109375 0.59375001,0 0.64062501,0.085937 0.72656251,0.3359375 l 1.2265625,3.28125 c 0.00781,0.023437 0.039063,0.1328125 0.039063,0.1640625 0,0.03125 -0.3984375,1.6328125 -0.4453125,1.81249998 -0.1328125,0.546875 -0.140625,0.578125 -0.9375,0.5859375 -0.19531251,0 -0.27343751,0 -0.27343751,0.203125 0,0.109375003333 0.12500001,0.109375003333 0.14062501,0.109375003333 0.28125,0 0.9765625,-0.03125000333 1.2578125,-0.03125000333 0.2734375,0 0.9921875,0.03125000333 1.2734375,0.03125000333 0.070312,0 0.1875,0 0.1875,-0.195312503333 0,-0.1171875 -0.085937,-0.1171875 -0.2734375,-0.1171875 -0.023437,0 -0.2109375,0 -0.3828125,-0.015625 -0.2109375,-0.0234375 -0.265625,-0.0390625 -0.265625,-0.15625 0,-0.0703125 0.085937,-0.421875 0.1328125,-0.63281248 l 0.3515625,-1.40625 c 0.046875,-0.1875 0.0625,-0.21875 0.140625,-0.3046875 z m 0,0"
       style="fill:#000000;fill-opacity:1;fill-rule:nonzero;stroke:none"
       aria-label="Y"
       transform="matrix(2,0,0,2,121.06467,76.945333)" />
    <path
       id="path3"
       d="m 6.328026,-5.7568594 c 0.09375,-0.40625 0.2734375,-0.703125 1.0703125,-0.734375 0.054687,0 0.171875,-0.015625 0.171875,-0.203125 0,-0.00781 0,-0.109375 -0.1328125,-0.109375 -0.328125,0 -0.671875,0.03125 -1.015625,0.03125 -0.3359375,0 -0.703125,-0.03125 -1.03125,-0.03125 -0.0625,0 -0.1796875,0 -0.1796875,0.203125 0,0.109375 0.1015625,0.109375 0.1796875,0.109375 0.5625,0.00781 0.671875,0.21875 0.671875,0.4375 0,0.03125 -0.015625,0.1796875 -0.023437,0.2109375 l -0.898438,3.5546875 c -0.3359375,1.33593752 -1.484375,2.20312502 -2.484375,2.20312502 -0.671875,0 -1.2109375,-0.4453125 -1.2109375,-1.29687502 0,-0.023437 0,-0.34375 0.109375,-0.78125 l 0.96875,-3.875 c 0.085937,-0.359375 0.109375,-0.453125 0.8359375,-0.453125 0.2578125,0 0.3359375,0 0.3359375,-0.203125 0,-0.109375 -0.109375,-0.109375 -0.140625,-0.109375 -0.28125,0 -0.9921875,0.03125 -1.2734375,0.03125 -0.2890625,0 -1,-0.03125 -1.28906246,-0.03125 -0.078125,0 -0.1875,0 -0.1875,0.203125 0,0.109375 0.09375,0.109375 0.28124996,0.109375 0.023437,0 0.2109375,0 0.375,0.015625 0.1796875,0.023437 0.2734375,0.03125 0.2734375,0.1640625 0,0.054687 -0.109375,0.4765625 -0.171875,0.703125 l -0.21875,0.875 c -0.085937,0.390625 -0.57031246,2.2734375 -0.60937496,2.4609375 -0.0703125,0.28125 -0.0703125,0.4296875 -0.0703125,0.578125 0,1.21875002 0.90624996,1.91406252 1.95312496,1.91406252 1.2578125,0 2.4921875,-1.125 2.8203125,-2.43750002 z m 0,0"
       style="fill:#000000;fill-opacity:1;fill-rule:nonzero;stroke:none"
       aria-label="U"
       transform="matrix(2,0,0,2,64.480667,20.252)" />
    <path
       id="path4"
       d="M 12.05792,0 H 72.57578"
       style="fill:none;stroke:#000000;stroke-width:1.19553;stroke-linecap:butt;stroke-linejoin:miter;stroke-miterlimit:10;stroke-dasharray:none;stroke-opacity:1"
       transform="matrix(1.3333333,0,0,-1.3333333,15.676,70.137333)" />
    <path
       id="path5"
       d="M -3.02867,3.83081 C -2.47534,1.53229 -1.24231,0.44691 0,0 -1.24231,-0.44691 -2.47534,-1.53229 -3.02867,-3.83081"
       style="fill:none;stroke:#000000;stroke-width:1.19553;stroke-linecap:round;stroke-linejoin:round;stroke-miterlimit:10;stroke-dasharray:none;stroke-opacity:1"
       transform="matrix(1.3333333,0,0,-1.3333333,113.24069,70.137333)" />
    <path
       id="path6"
       d="M 32.13945,32.13849 11.22897,11.23215"
       style="fill:none;stroke:#ff0000;stroke-width:1.19553;stroke-linecap:butt;stroke-linejoin:miter;stroke-miterlimit:10;stroke-dasharray:none;stroke-opacity:1"
       transform="matrix(1.3333333,0,0,-1.3333333,15.676,70.137333)" />
    <path
       id="path7"
       d="M -3.02867,3.83081 C -2.47534,1.53229 -1.24231,0.44691 0,0 -1.24231,-0.44691 -2.47534,-1.53229 -3.02867,-3.83081"
       style="fill:none;stroke:#ff0000;stroke-width:1.19553;stroke-linecap:round;stroke-linejoin:round;stroke-miterlimit:10;stroke-dasharray:none;stroke-opacity:1"
       transform="matrix(-0.94289333,0.94270667,0.94270667,0.94289333,30.084347,55.724653)" />
    <path
       id="path8"
       d="M 52.91606,32.13849 73.82472,11.23218"
       style="fill:none;stroke:#ff0000;stroke-width:1.19553;stroke-linecap:butt;stroke-linejoin:miter;stroke-miterlimit:10;stroke-dasharray:none;stroke-opacity:1"
       transform="matrix(1.3333333,0,0,-1.3333333,15.676,70.137333)" />
    <path
       id="path9"
       d="M -3.02867,3.83081 C -2.47534,1.53229 -1.24231,0.44691 0,0 -1.24231,-0.44691 -2.47534,-1.53229 -3.02867,-3.83081"
       style="fill:none;stroke:#ff0000;stroke-width:1.19553;stroke-linecap:round;stroke-linejoin:round;stroke-miterlimit:10;stroke-dasharray:none;stroke-opacity:1"
       transform="matrix(0.94285333,0.94274667,0.94274667,-0.94285333,114.67252,55.72464)" />
  </g>
</svg>
